<?xml version="1.0" encoding="UTF-8"?>
<svg width="1229px" height="275px" viewBox="0 0 1229 275" version="1.1" xmlns="http://www.w3.org/2000/svg" xmlns:xlink="http://www.w3.org/1999/xlink">
    <title>Page 1</title>
    <g id="Page-1" stroke="none" stroke-width="1" fill="none" fill-rule="evenodd">
        <rect id="Rectangle" fill="#63656A" x="0" y="0" width="1229" height="275"></rect>
        <text id="in-context" font-family="Poppins-Bold, Poppins" font-size="122" font-weight="bold" letter-spacing="-4.88" fill="#FDFEFF">
            <tspan x="295" y="244">in context</tspan>
        </text>
        <text id="otivation" fill="#FFFFFF" fill-rule="nonzero" font-family="Poppins-Bold, Poppins" font-size="122" font-weight="bold" letter-spacing="-4.88">
            <tspan x="407" y="135">otivation</tspan>
        </text>
        <text id="M" fill="#00B3BE" fill-rule="nonzero" font-family="Poppins-Bold, Poppins" font-size="122" font-weight="bold" letter-spacing="-4.88">
            <tspan x="294" y="135">M</tspan>
        </text>
        <text id="lab" font-family="Poppins-Bold, Poppins" font-size="122" font-weight="bold" letter-spacing="-4.88" fill="#FDFEFF">
            <tspan x="956" y="244">lab</tspan>
        </text>
        <polygon id="Triangle" fill="#FFFFFF" transform="translate(902.000000, 235.000000) rotate(90.000000) translate(-902.000000, -235.000000) " points="902 223 914 247 890 247"></polygon>
        <g id="Group-7" transform="translate(59.000000, 54.000000)">
            <g id="Group-6"></g>
            <ellipse id="Oval" stroke="#00B3BE" stroke-width="8" cx="95.5" cy="93" rx="45.5" ry="45"></ellipse>
            <circle id="Oval" stroke="#00B3BE" stroke-width="8" cx="93.5" cy="94.5" r="16.5"></circle>
            <line x1="95" y1="68" x2="95" y2="76" id="Line" stroke="#00B3BE" stroke-width="8" stroke-linecap="round"></line>
            <line x1="95" y1="113" x2="95" y2="121" id="Line" stroke="#00B3BE" stroke-width="8" stroke-linecap="round"></line>
            <line x1="79.9347223" y1="73.8362399" x2="77.7200499" y2="81.5627855" id="Line" stroke="#00B3BE" stroke-width="8" stroke-linecap="round" transform="translate(78.827386, 77.699513) rotate(-60.941701) translate(-78.827386, -77.699513) "></line>
            <line x1="112.455428" y1="105.853742" x2="110.240755" y2="113.580288" id="Line" stroke="#00B3BE" stroke-width="8" stroke-linecap="round" transform="translate(111.348091, 109.717015) rotate(-60.941701) translate(-111.348091, -109.717015) "></line>
            <line x1="110.681858" y1="75.7876654" x2="112.89653" y2="83.514211" id="Line" stroke="#00B3BE" stroke-width="8" stroke-linecap="round" transform="translate(111.789194, 79.650938) rotate(-119.058299) translate(-111.789194, -79.650938) "></line>
            <line x1="77.1638369" y1="106.9682" x2="79.3785093" y2="114.694746" id="Line" stroke="#00B3BE" stroke-width="8" stroke-linecap="round" transform="translate(78.271173, 110.831473) rotate(-119.058299) translate(-78.271173, -110.831473) "></line>
            <line x1="72.2081366" y1="89.8471328" x2="70.0021111" y2="97.5693951" id="Line" stroke="#00B3BE" stroke-width="8" stroke-linecap="round" transform="translate(71.105124, 93.708264) rotate(-105.943097) translate(-71.105124, -93.708264) "></line>
            <line x1="117.95776" y1="89.8471328" x2="115.751735" y2="97.5693951" id="Line" stroke="#00B3BE" stroke-width="8" stroke-linecap="round" transform="translate(116.854747, 93.708264) rotate(-105.943097) translate(-116.854747, -93.708264) "></line>
            <polyline id="Path-2" stroke="#00B3BE" stroke-width="8" stroke-linecap="round" stroke-linejoin="round" points="91 0 110.587661 0 111.109324 25.7753943 129.971002 34.7045448 150.155421 17.3522724 170.556542 38.6321101 155.570831 56.2632146 162.120174 76.5869788 188 79.3418953 188 107.966192 162.120174 109.453003 159.146418 120"></polyline>
            <polyline id="Path-3" stroke="#00B3BE" stroke-width="8" stroke-linecap="round" stroke-linejoin="round" points="74 28.8395353 59.8612752 34.8875122 39.4832903 19 19.8371771 38.7813414 34.6699926 57.5582751 28.7901915 75.8206248 0 78.5488574 0 108.36831 28.7901915 111.096543 34.6699926 125"></polyline>
            <path d="M25,159.148672 L36.1638625,170.401475 L57.0792626,152 L76.8110152,159.148672 C78.6248825,176.382891 79.5318162,185 79.5318162,185 C79.5318162,185 88.9379145,185 107.750111,185 L109.270043,161.886578 L127.854404,154.611322 L148.119737,170.401475 L165,156.362753" id="Path-4" stroke="#00B3BE" stroke-width="8" stroke-linecap="round" stroke-linejoin="round"></path>
            <circle id="Oval" fill="#00B3BE" cx="25" cy="142" r="4"></circle>
            <circle id="Oval" fill="#00B3BE" cx="162" cy="139" r="4"></circle>
            <circle id="Oval" fill="#00B3BE" cx="79" cy="11" r="4"></circle>
        </g>
    </g>
</svg>