<?xml version="1.0" encoding="UTF-8"?>
<svg width="1229px" height="275px" viewBox="0 0 1229 275" version="1.1" xmlns="http://www.w3.org/2000/svg" xmlns:xlink="http://www.w3.org/1999/xlink">
    <title>Page 1</title>
    <g id="Page-1" stroke="none" stroke-width="1" fill="none" fill-rule="evenodd">
        <rect id="Rectangle" fill="#63656A" x="0" y="0" width="1229" height="275"></rect>
        <text id="in-context" font-family="Poppins-Bold, Poppins" font-size="122" font-weight="bold" letter-spacing="-4.88" fill="#FDFEFF">
            <tspan x="73" y="247">in context</tspan>
        </text>
        <text id="otivation" fill="#FFFFFF" fill-rule="nonzero" font-family="Poppins-Bold, Poppins" font-size="122" font-weight="bold" letter-spacing="-4.88">
            <tspan x="185" y="138">otivation</tspan>
        </text>
        <text id="M" fill="#00B3BE" fill-rule="nonzero" font-family="Poppins-Bold, Poppins" font-size="122" font-weight="bold" letter-spacing="-4.88">
            <tspan x="72" y="138">M</tspan>
        </text>
        <polygon id="Triangle" fill="#FFFFFF" transform="translate(544.000000, 78.500000) rotate(90.000000) translate(-544.000000, -78.500000) " points="544 66.5 556 90.5 532 90.5"></polygon>
        <text id="lab" font-family="Poppins-Bold, Poppins" font-size="122" font-weight="bold" letter-spacing="-4.88" fill="#FDFEFF">
            <tspan x="734" y="247">lab</tspan>
        </text>
        <g id="Group-4" transform="translate(1029.000000, 62.000000)" fill="#00B3BE" fill-rule="nonzero">
            <path d="M49.3923712,141.055194 C45.4984771,139.5008 41.2811771,139.666022 37.5240251,141.535644 C33.7473385,143.409613 30.9473812,146.781454 29.8425918,150.779401 C26.7279106,162.053655 32.5188301,177.01715 42.7527825,184.139104 L43.9921435,185 L45.2293339,184.139104 C54.7491887,177.517165 60.5184031,164.168936 58.6495944,153.092515 C57.7075932,147.494519 54.2456305,142.994383 49.3923712,141.055194 Z M43.9921435,179.641142 C36.0611016,173.258341 31.5377598,160.951448 34.0273342,151.940306 C34.8022061,149.131525 36.7817108,146.759715 39.453608,145.431414 C40.8969969,144.714001 42.4358881,144.355294 43.9812909,144.355294 C45.259721,144.355294 46.5446627,144.600954 47.7818531,145.096621 C51.2177697,146.468401 53.6791275,149.72937 54.3693496,153.820797 C55.8691717,162.699326 51.3610234,173.721398 43.9921435,179.641142 Z" id="Shape"></path>
            <path d="M44.5,48 C37.0563198,48 31,54.0546249 31,61.4989075 C31,68.9431901 37.0563198,75 44.5,75 C51.9436802,75 58,68.9453751 58,61.4989075 C58,54.0546249 51.9436802,48 44.5,48 Z M44.5,70.6278223 C39.4661758,70.6278223 35.3696391,66.5309541 35.3696391,61.4967225 C35.3696391,56.4624909 39.4661758,52.3678077 44.5,52.3678077 C49.5338242,52.3678077 53.6303609,56.4624909 53.6303609,61.4967225 C53.6303609,66.5309541 49.5338242,70.6278223 44.5,70.6278223 Z" id="Shape"></path>
            <path d="M87.4294905,90.8397619 L70.9326207,72.8148214 C70.9347982,71.5858976 70.9391532,70.3569739 70.9435083,69.1084743 C71.0001237,56.0644816 71.0610942,42.5767712 67.7991735,30.1657286 C64.8529928,18.9553336 54.9387573,9.55243541 46.9733996,1.99836057 L45.5013981,0.601955143 C44.6608765,-0.200651714 43.336946,-0.200651714 42.4964244,0.601955143 L41.0266004,1.99836057 C33.0590652,9.55461049 23.1448296,18.9553336 20.2008265,30.1657286 C16.9389058,42.5767712 16.9998763,56.0644816 17.0564917,69.1084743 C17.0630243,70.359149 17.0652018,71.5924229 17.0673793,72.8256969 C17.0564917,72.8365723 17.0434266,72.8387474 17.0347166,72.8496228 L0.57050949,90.8397619 C0.204686611,91.2421528 0,91.7641736 0,92.3079452 L0,126.413299 C0,127.292034 0.531314181,128.088115 1.34352807,128.423079 C1.6135402,128.536183 1.89661743,128.588385 2.17751714,128.588385 C2.74367159,128.588385 3.30111598,128.366526 3.71702175,127.951085 L17.0717343,114.61128 L17.0717343,120.999509 C17.0717343,122.202332 18.047262,123.174595 19.2492515,123.174595 L25.2112934,123.174595 L22.940143,131.23764 C22.7550541,131.892341 22.8878826,132.597069 23.2994334,133.138666 C23.7109841,133.682437 24.3533516,134 25.0349145,134 L62.9650855,134 C63.6466484,134 64.2890159,133.682437 64.7005666,133.138666 C65.1121174,132.597069 65.2449459,131.892341 65.059857,131.23764 L62.7887066,123.174595 L68.7507485,123.174595 C69.952738,123.174595 70.9282657,122.202332 70.9282657,120.999509 L70.9282657,114.613456 L84.2829782,127.951085 C84.698884,128.366526 85.2563284,128.588385 85.8224829,128.588385 C86.1033826,128.588385 86.3864598,128.536183 86.6564719,128.423079 C87.4708633,128.088115 88,127.292034 88,126.413299 L88,92.3079452 C88,91.7641736 87.7953134,91.2399778 87.4294905,90.8397619 Z M17.0695568,108.457961 L4.35285675,121.160465 L4.35285675,93.1518786 L17.0695568,79.2574271 L17.0695568,108.457961 Z M43.9989112,5.1761617 C49.9609532,10.8292111 56.5131022,17.0477829 60.5262663,24.0189346 C44.4561898,31.9427741 31.5935961,26.422405 27.4105857,24.1276889 C31.4215723,17.1108604 38.0063841,10.8574872 43.9989112,5.1761617 Z M27.9092371,129.649827 L29.731819,123.17242 L58.2660035,123.17242 L60.0885854,129.649827 L27.9092371,129.649827 Z M66.588474,69.0888985 C66.5819415,70.7550147 66.5732314,72.4037301 66.5732314,74.0372199 L66.5732314,118.822248 L21.4245911,118.822248 L21.4245911,74.0372199 C21.4245911,72.4037301 21.4180585,70.7528396 21.4093485,69.0888985 C21.352733,56.3254919 21.2939401,43.1270681 24.4099671,31.2684974 C24.6973994,30.1744289 25.0741098,29.0999363 25.5052582,28.0384942 C28.6016876,29.7046103 35.066736,32.5061215 43.6222008,32.5061215 C49.1465617,32.5061215 55.5419296,31.3076489 62.4381263,27.907989 C62.8932274,29.0107577 63.2851805,30.1309272 63.5835004,31.2706725 C66.7017049,43.1270681 66.6429119,56.3254919 66.588474,69.0888985 Z M83.6449657,121.160465 L70.9282657,108.460136 L70.9282657,79.2574271 L83.6449657,93.1518786 L83.6449657,121.160465 Z" id="Shape"></path>
        </g>
        <polygon id="Triangle" fill="#FFFFFF" transform="translate(679.000000, 238.000000) rotate(90.000000) translate(-679.000000, -238.000000) " points="679 226 691 250 667 250"></polygon>
        <polygon id="Triangle" fill="#FFFFFF" transform="translate(496.000000, 238.000000) rotate(90.000000) translate(-496.000000, -238.000000) " points="496 226 508 250 484 250"></polygon>
    </g>
</svg>